<?xml version="1.0" encoding="UTF-8"?>
<!DOCTYPE svg PUBLIC "-//W3C//DTD SVG 1.1//EN" "http://www.w3.org/Graphics/SVG/1.1/DTD/svg11.dtd">
<!-- Creator: CorelDRAW 2021 (64-Bit) -->
<svg xmlns="http://www.w3.org/2000/svg" xml:space="preserve" width="16.8145mm" height="16.8145mm" version="1.1" style="shape-rendering:geometricPrecision; text-rendering:geometricPrecision; image-rendering:optimizeQuality; fill-rule:evenodd; clip-rule:evenodd"
viewBox="0 0 1024.32 1024.32"
 xmlns:xlink="http://www.w3.org/1999/xlink"
 xmlns:xodm="http://www.corel.com/coreldraw/odm/2003">
 <defs>
  <style type="text/css">
   <![CDATA[
    .fil1 {fill:#FEFEFE;fill-rule:nonzero}
    .fil0 {fill:#222124;fill-rule:nonzero}
   ]]>
  </style>
 </defs>
 <g id="Capa_x0020_1">
  <metadata id="CorelCorpID_0Corel-Layer"/>
  <path class="fil0" d="M1024.32 512.15c0,282.87 -229.31,512.17 -512.17,512.17 -282.84,0 -512.15,-229.31 -512.15,-512.17 0,-282.84 229.31,-512.15 512.15,-512.15 282.86,0 512.17,229.31 512.17,512.15z"/>
  <path class="fil1" d="M619.54 601.77c-31.92,0 -58.11,-29.25 -58.11,-65.14 0,-35.89 25.62,-65.37 58.11,-65.37 32.52,0 58.48,29.25 58.14,65.2 -0.37,35.95 -25.62,65.31 -58.14,65.31zm-214.87 0c-31.93,0 -58.13,-29.25 -58.13,-65.14 0,-35.89 25.62,-65.37 58.13,-65.37 32.52,0 58.48,29.25 58.18,65.2 -0.3,35.95 -25.66,65.31 -58.18,65.31zm331.93 -294.81c-42.47,-19.56 -87.34,-33.42 -133.41,-41.22 -5.85,10.23 -12.47,23.98 -17.09,35.08 -49.02,-7.31 -98.86,-7.31 -147.86,0 -5.25,-11.97 -11.11,-23.69 -17.56,-35.08 -46.14,7.8 -91.06,21.73 -133.55,41.39 -84.2,125.55 -107.05,248.09 -95.66,368.79 49.43,36.73 104.81,64.67 163.72,82.61 13.26,-17.97 24.99,-36.98 35.09,-56.89 -19.15,-7.15 -37.61,-15.97 -55.2,-26.37 4.59,-3.48 9.05,-6.96 13.34,-10.47 103.63,49.02 223.79,49.02 327.42,0 4.4,3.63 8.96,7.13 13.52,10.53 -17.62,10.45 -36.12,19.3 -55.32,26.48 10.08,19.88 21.82,38.87 35.1,56.78 58.93,-17.88 114.31,-45.84 163.72,-82.63 13.32,-139.91 -23.04,-261.35 -96.26,-369z"/>
 </g>
</svg>
