<?xml version="1.0" encoding="UTF-8"?>
<!DOCTYPE svg PUBLIC "-//W3C//DTD SVG 1.1//EN" "http://www.w3.org/Graphics/SVG/1.1/DTD/svg11.dtd">
<!-- Creator: CorelDRAW 2021 (64-Bit) -->
<svg xmlns="http://www.w3.org/2000/svg" xml:space="preserve" width="16.8144mm" height="16.8145mm" version="1.1" style="shape-rendering:geometricPrecision; text-rendering:geometricPrecision; image-rendering:optimizeQuality; fill-rule:evenodd; clip-rule:evenodd"
viewBox="0 0 152.62 152.62"
 xmlns:xlink="http://www.w3.org/1999/xlink"
 xmlns:xodm="http://www.corel.com/coreldraw/odm/2003">
 <defs>
  <style type="text/css">
   <![CDATA[
    .fil1 {fill:#FEFEFE;fill-rule:nonzero}
    .fil0 {fill:#222124;fill-rule:nonzero}
   ]]>
  </style>
 </defs>
 <g id="Capa_x0020_1">
  <metadata id="CorelCorpID_0Corel-Layer"/>
  <path class="fil0" d="M152.62 76.31c0,42.15 -34.16,76.31 -76.31,76.31 -42.15,0 -76.31,-34.17 -76.31,-76.31 0,-42.14 34.16,-76.31 76.31,-76.31 42.14,0 76.31,34.17 76.31,76.31z"/>
  <path class="fil1" d="M84.75 124.91l0 -42.53 14.18 0 2.7 -17.59 -16.88 0 0 -11.42c0,-4.81 2.36,-9.5 9.92,-9.5l7.67 0 0 -14.98c0,0 -6.96,-1.19 -13.62,-1.19 -13.9,0 -22.99,8.42 -22.99,23.68l0 13.41 -15.45 0 0 17.59 15.45 0 0 42.53 19.02 0z"/>
 </g>
</svg>
