<?xml version="1.0" encoding="UTF-8"?>
<!DOCTYPE svg PUBLIC "-//W3C//DTD SVG 1.1//EN" "http://www.w3.org/Graphics/SVG/1.1/DTD/svg11.dtd">
<!-- Creator: CorelDRAW 2021 (64-Bit) -->
<svg xmlns="http://www.w3.org/2000/svg" xml:space="preserve" width="16.8145mm" height="16.8144mm" version="1.1" style="shape-rendering:geometricPrecision; text-rendering:geometricPrecision; image-rendering:optimizeQuality; fill-rule:evenodd; clip-rule:evenodd"
viewBox="0 0 1643.86 1643.85"
 xmlns:xlink="http://www.w3.org/1999/xlink"
 xmlns:xodm="http://www.corel.com/coreldraw/odm/2003">
 <defs>
  <style type="text/css">
   <![CDATA[
    .fil1 {fill:#FEFEFE}
    .fil0 {fill:#222124;fill-rule:nonzero}
   ]]>
  </style>
 </defs>
 <g id="Capa_x0020_1">
  <metadata id="CorelCorpID_0Corel-Layer"/>
  <path class="fil0" d="M1643.86 821.92c0,453.94 -368,821.93 -821.94,821.93 -453.91,0 -821.92,-367.99 -821.92,-821.93 0,-453.92 368,-821.92 821.92,-821.92 453.94,0 821.94,367.99 821.94,821.92z"/>
  <path class="fil1" d="M291.45 830.72c0,93.57 25.93,188.28 73.92,267.99 24.9,41.34 58.15,86.09 94.84,118.4 3.79,3.34 5,3.48 8.82,7.05 5.61,5.26 9.31,8.17 14.98,13.22l85.32 57.43c6.74,3.62 11.42,6.61 18.19,10.01 32.97,16.55 69.42,30.3 105.75,38.76 -6.03,-25.9 -3.54,-60.85 -3.52,-89.88 0,-5.3 0.23,-10.85 0.2,-16.06 -0.06,-8.34 1.27,-9 -5.46,-10.4 -31.46,-6.51 -76.05,10.53 -113.21,-11.92 -44.74,-27.01 -41.11,-79.61 -69.83,-118.74 -4.83,-6.58 -8.77,-11.38 -14.79,-16.93 -5.48,-5.05 -15.45,-10.29 -15.45,-18.04 0,-6.74 7.89,-8.82 14.11,-8.82 24.23,0 51.79,27.5 66.58,44.45 32.72,37.5 31.23,43.67 88.51,43.67 23.87,0 47.21,-4.89 65.21,-5.29 1.88,-22.53 37.52,-64.87 55.86,-78.08 5.1,-3.68 7.93,-3.93 11.11,-8.27 -77.62,-6.46 -180.39,-43.06 -224.19,-108.9 -53.74,-80.76 -45.26,-170.45 11.45,-246.61 4.11,-5.51 8.69,-9.9 11.84,-14.6 -8.45,-36.26 -21.72,-90.24 -9.48,-131.08 3.22,-10.71 11.44,-21.66 13,-27.53 50.27,0 94.51,17.6 127.36,50.64 21.23,21.36 8.76,11.04 66.04,-0.01 47.12,-9.07 103.53,-9.07 151.03,-0.27 12.53,2.32 43.65,13.09 52.12,13.09 6.14,0 20.93,-18.8 26.4,-22.95 32.12,-24.39 64.82,-40.5 111.07,-40.5 19.23,0 21.15,57.26 21.15,75.79 0,32.1 -14.1,74.69 -14.1,82.83l21.53 27.82c61.4,91.17 42.95,213.57 -42.42,277.33 -11.17,8.34 -23.54,16.58 -36.64,23.28 -38.24,19.55 -101.02,38.15 -143.38,38.15 3.7,5.03 10.87,7.84 16.16,12.04 10.11,8.02 21.14,19.06 28.28,29.88 4.09,6.19 8.47,12.13 11.9,18.06 12.2,21.08 26.49,58.55 26.49,91.59l0 116.32c0,8.86 -1.58,7.89 -1.76,15.86 4.9,-2.35 13.55,-5.22 19.18,-7.24l87.99 -44.19c96.36,-58 178.71,-158.04 216.03,-265.11 18.32,-52.59 32.8,-112.25 32.8,-182.21 0,-292.86 -237.02,-530.48 -530.48,-530.48 -77.38,0 -150.31,15.04 -217.96,46.41 -46.09,21.36 -83.42,47 -122.19,76.96l-34.8 32.16c-83.81,83.8 -136.97,192.99 -151.53,311.99l-4.01 62.96z"/>
 </g>
</svg>
