<?xml version="1.0" encoding="UTF-8"?>
<!DOCTYPE svg PUBLIC "-//W3C//DTD SVG 1.1//EN" "http://www.w3.org/Graphics/SVG/1.1/DTD/svg11.dtd">
<!-- Creator: CorelDRAW 2021 (64-Bit) -->
<svg xmlns="http://www.w3.org/2000/svg" xml:space="preserve" width="16.8143mm" height="16.8145mm" version="1.1" style="shape-rendering:geometricPrecision; text-rendering:geometricPrecision; image-rendering:optimizeQuality; fill-rule:evenodd; clip-rule:evenodd"
viewBox="0 0 272.37 272.37"
 xmlns:xlink="http://www.w3.org/1999/xlink"
 xmlns:xodm="http://www.corel.com/coreldraw/odm/2003">
 <defs>
  <style type="text/css">
   <![CDATA[
    .fil1 {fill:#FEFEFE;fill-rule:nonzero}
    .fil0 {fill:#222124;fill-rule:nonzero}
   ]]>
  </style>
 </defs>
 <g id="Capa_x0020_1">
  <metadata id="CorelCorpID_0Corel-Layer"/>
  <path class="fil0" d="M272.37 136.18c0,75.21 -60.97,136.19 -136.19,136.19 -75.21,0 -136.18,-60.97 -136.18,-136.19 0,-75.21 60.97,-136.18 136.18,-136.18 75.21,0 136.19,60.97 136.19,136.18z"/>
  <path class="fil1" d="M173.71 90.62c-4.59,0 -8.31,3.72 -8.31,8.31 0,4.59 3.72,8.31 8.31,8.31 4.59,0 8.31,-3.73 8.31,-8.31 0,-4.59 -3.72,-8.31 -8.31,-8.31z"/>
  <path class="fil1" d="M136.76 158.54c-12.33,0 -22.36,-10.03 -22.36,-22.36 0,-12.33 10.03,-22.36 22.36,-22.36 12.33,0 22.36,10.03 22.36,22.36 0,12.33 -10.03,22.36 -22.36,22.36zm0 -57.27c-19.25,0 -34.9,15.66 -34.9,34.9 0,19.25 15.66,34.91 34.9,34.91 19.25,0 34.91,-15.66 34.91,-34.91 0,-19.25 -15.66,-34.9 -34.91,-34.9z"/>
  <path class="fil1" d="M107.89 78.65c-16.13,0 -29.24,13.11 -29.24,29.24l0 56.59c0,16.13 13.11,29.24 29.24,29.24l56.59 0c16.12,0 29.24,-13.11 29.24,-29.24l0 -56.59c0,-16.13 -13.12,-29.24 -29.24,-29.24l-56.59 0zm56.59 128.4l-56.59 0c-23.47,0 -42.57,-19.1 -42.57,-42.57l0 -56.59c0,-23.47 19.1,-42.57 42.57,-42.57l56.59 0c23.47,0 42.57,19.1 42.57,42.57l0 56.59c0,23.48 -19.1,42.57 -42.57,42.57z"/>
 </g>
</svg>
