<?xml version="1.0" encoding="UTF-8"?>
<!DOCTYPE svg PUBLIC "-//W3C//DTD SVG 1.1//EN" "http://www.w3.org/Graphics/SVG/1.1/DTD/svg11.dtd">
<!-- Creator: CorelDRAW 2021 (64-Bit) -->
<svg xmlns="http://www.w3.org/2000/svg" xml:space="preserve" width="16.8144mm" height="16.8145mm" version="1.1" style="shape-rendering:geometricPrecision; text-rendering:geometricPrecision; image-rendering:optimizeQuality; fill-rule:evenodd; clip-rule:evenodd"
viewBox="0 0 152.62 152.62"
 xmlns:xlink="http://www.w3.org/1999/xlink"
 xmlns:xodm="http://www.corel.com/coreldraw/odm/2003">
 <defs>
  <style type="text/css">
   <![CDATA[
    .fil1 {fill:#FEFEFE;fill-rule:nonzero}
    .fil0 {fill:#222124;fill-rule:nonzero}
   ]]>
  </style>
 </defs>
 <g id="Capa_x0020_1">
  <metadata id="CorelCorpID_0Corel-Layer"/>
  <path class="fil0" d="M152.62 76.31c0,42.15 -34.16,76.31 -76.31,76.31 -42.15,0 -76.31,-34.17 -76.31,-76.31 0,-42.14 34.16,-76.31 76.31,-76.31 42.14,0 76.31,34.17 76.31,76.31z"/>
  <path class="fil1" d="M52.3 37.5c4.2,0 7.6,3.4 7.6,7.59 0,4.2 -3.4,7.6 -7.6,7.6 -4.21,0 -7.61,-3.41 -7.61,-7.6 0,-4.19 3.4,-7.59 7.61,-7.59zm-6.56 20.94l13.12 0 0 42.15 -13.12 0 0 -42.15z"/>
  <path class="fil1" d="M67.07 58.44l12.57 0 0 5.77 0.17 0c1.75,-3.32 6.02,-6.81 12.4,-6.81 13.26,0 15.71,8.72 15.71,20.07l0 23.11 -13.09 0 0 -20.49c0,-4.89 -0.1,-11.18 -6.81,-11.18 -6.82,0 -7.86,5.32 -7.86,10.82l0 20.84 -13.09 0 0 -42.15z"/>
 </g>
</svg>
