<?xml version="1.0" encoding="UTF-8"?>
<!DOCTYPE svg PUBLIC "-//W3C//DTD SVG 1.1//EN" "http://www.w3.org/Graphics/SVG/1.1/DTD/svg11.dtd">
<!-- Creator: CorelDRAW 2021 (64-Bit) -->
<svg xmlns="http://www.w3.org/2000/svg" xml:space="preserve" width="16.8143mm" height="16.8145mm" version="1.1" style="shape-rendering:geometricPrecision; text-rendering:geometricPrecision; image-rendering:optimizeQuality; fill-rule:evenodd; clip-rule:evenodd"
viewBox="0 0 197.65 197.65"
 xmlns:xlink="http://www.w3.org/1999/xlink"
 xmlns:xodm="http://www.corel.com/coreldraw/odm/2003">
 <defs>
  <style type="text/css">
   <![CDATA[
    .fil1 {fill:#FEFEFE;fill-rule:nonzero}
    .fil0 {fill:#222124;fill-rule:nonzero}
   ]]>
  </style>
 </defs>
 <g id="Capa_x0020_1">
  <metadata id="CorelCorpID_0Corel-Layer"/>
  <path class="fil0" d="M197.65 98.82c0,54.58 -44.24,98.83 -98.82,98.83 -54.58,0 -98.82,-44.25 -98.82,-98.83 0,-54.58 44.24,-98.82 98.82,-98.82 54.58,0 98.82,44.25 98.82,98.82z"/>
  <path class="fil1" d="M96.56 104.25l-3.48 -4.98 -27.71 -39.64 11.93 0 22.36 31.99 3.48 4.99 29.07 41.58 -11.93 0 -23.72 -33.93 0 -0zm10.64 -12.37l32.78 -38.1 -7.77 0 -28.46 33.08 -22.73 -33.08 -26.22 0 34.37 50.03 -34.37 39.95 7.77 0 30.06 -34.94 24.01 34.94 26.22 0 -35.65 -51.88 0 0z"/>
 </g>
</svg>
