<?xml version="1.0" encoding="UTF-8"?>
<!DOCTYPE svg PUBLIC "-//W3C//DTD SVG 1.1//EN" "http://www.w3.org/Graphics/SVG/1.1/DTD/svg11.dtd">
<!-- Creator: CorelDRAW 2021 (64-Bit) -->
<svg xmlns="http://www.w3.org/2000/svg" xml:space="preserve" width="16.8143mm" height="16.8144mm" version="1.1" style="shape-rendering:geometricPrecision; text-rendering:geometricPrecision; image-rendering:optimizeQuality; fill-rule:evenodd; clip-rule:evenodd"
viewBox="0 0 272.37 272.37"
 xmlns:xlink="http://www.w3.org/1999/xlink"
 xmlns:xodm="http://www.corel.com/coreldraw/odm/2003">
 <defs>
  <style type="text/css">
   <![CDATA[
    .fil2 {fill:#FEFEFE}
    .fil1 {fill:#FEFEFE;fill-rule:nonzero}
    .fil0 {fill:#222124;fill-rule:nonzero}
   ]]>
  </style>
 </defs>
 <g id="Capa_x0020_1">
  <metadata id="CorelCorpID_0Corel-Layer"/>
  <path class="fil0" d="M272.37 136.18c0,75.21 -60.97,136.19 -136.19,136.19 -75.21,0 -136.18,-60.97 -136.18,-136.19 0,-75.21 60.97,-136.18 136.18,-136.18 75.21,0 136.19,60.97 136.19,136.18z"/>
  <path class="fil1" d="M105.74 182.26l2.38 1.42c8.74,5.21 18.68,7.96 28.74,7.96 31.05,0 56.31,-25.26 56.31,-56.32 0,-31.05 -25.26,-56.31 -56.31,-56.31 -31.05,0 -56.31,25.26 -56.31,56.31 0,10.26 2.85,20.35 8.23,29.2l1.46 2.39 -5.63 20.99 21.11 -5.66zm-39.68 24.22l10.08 -37.61c-5.7,-10.29 -8.71,-21.83 -8.71,-33.54 0,-38.29 31.15,-69.44 69.44,-69.44 38.29,0 69.43,31.15 69.43,69.44 0,38.29 -31.15,69.44 -69.43,69.44 -11.49,0 -22.85,-2.9 -33.01,-8.42l-37.8 10.13z"/>
  <path class="fil2" d="M162.7 144.98c-2.86,-1.71 -6.57,-3.62 -9.94,-2.24 -2.58,1.06 -4.23,5.1 -5.9,7.17 -0.86,1.06 -1.89,1.22 -3.21,0.7 -9.7,-3.86 -17.13,-10.34 -22.47,-19.26 -0.91,-1.38 -0.74,-2.48 0.35,-3.77 1.62,-1.9 3.65,-4.06 4.08,-6.63 0.44,-2.56 -0.77,-5.56 -1.82,-7.85 -1.35,-2.91 -2.87,-7.08 -5.79,-8.73 -2.69,-1.52 -6.22,-0.67 -8.62,1.28 -4.13,3.37 -6.12,8.63 -6.07,13.86 0.02,1.49 0.2,2.97 0.55,4.4 0.84,3.45 2.43,6.66 4.22,9.73 1.35,2.31 2.82,4.54 4.41,6.7 5.19,7.05 11.64,13.17 19.11,17.74 3.74,2.29 7.75,4.29 11.92,5.67 4.67,1.54 8.83,3.15 13.87,2.19 5.28,-1 10.49,-4.27 12.58,-9.35 0.62,-1.51 0.92,-3.18 0.58,-4.78 -0.72,-3.29 -5.17,-5.24 -7.84,-6.84z"/>
 </g>
</svg>
